# xmcd
#
# Track frame offsets:
#	150
#	15652
#	35625
#	64217
#	83850
#	106685
#	135882
#	154697
#	175310
#	191647
#	233310
#	268070
#	279222
#
# Disc length: 4261 seconds
# Revision: 0
# Processed by: cddbd v1.5.2PL0 Copyright (c) Steve Scherf et al.
# Submitted via: dBpowerAMP V12.0
#
DISCID=9e10a30d
DTITLE=Dave Alvin and The Guilty Men - Interstate City
DYEAR=1996
DGENRE=Americana
TTITLE0=So Long Baby Goodbye
TTITLE1=Out in California
TTITLE2=Interstate City
TTITLE3=Look Out (It Must Be Love)
TTITLE4=Mister Lee
TTITLE5=Thirty Dollar Room
TTITLE6=Dry River
TTITLE7=Museum of Heart
TTITLE8=Waiting for the Hard Times to Go
TTITLE9=Jubilee Train/Do Re Mi/Promised Land
TTITLE10=Long White Cadillac
TTITLE11=The New Florence Avenue Lullaby
TTITLE12=Romeo's Escape
EXTD=
EXTT0=
EXTT1=
EXTT2=
EXTT3=
EXTT4=
EXTT5=
EXTT6=
EXTT7=
EXTT8=
EXTT9=
EXTT10=
EXTT11=
EXTT12=
PLAYORDER=
